<?xml version="1.0" encoding="iso-8859-1"?>
<!-- Generator: Adobe Illustrator 19.0.0, SVG Export Plug-In . SVG Version: 6.00 Build 0)  -->
<svg xmlns="http://www.w3.org/2000/svg" xmlns:xlink="http://www.w3.org/1999/xlink" version="1.1" id="Layer_1" x="0px" y="0px" viewBox="0 0 406.64 406.64" style="enable-background:new 0 0 406.64 406.64;" xml:space="preserve" width="512" height="512">
<g>
	<path style="fill:#9AD14B;" d="M203.323,373.739c8.66,0,16.65-0.96,24-2.76v28.16h-48v-28.16   C186.673,372.779,194.663,373.739,203.323,373.739z"/>
	<path style="fill:#9AD14B;" d="M308.163,136.569c0,0,27.51,207.97-80.84,234.41c-7.35,1.8-15.34,2.76-24,2.76   c0,0,7.77-153.49,84.73-222.24C294.293,145.919,300.983,140.899,308.163,136.569z"/>
	<path style="fill:#9AD14B;" d="M118.593,151.509c76.96,68.75,84.73,222.23,84.73,222.23c-8.66,0-16.65-0.96-24-2.76   c-108.36-26.44-80.85-234.41-80.85-234.41c7.19,4.34,13.88,9.36,20.12,14.93V151.509z"/>
	<path style="fill:#90BC42;" d="M143.512,179.664c-7.375-10.335-15.639-19.865-24.919-28.155v-0.01   c-6.24-5.57-12.93-10.59-20.12-14.93c0,0-27.51,207.97,80.85,234.41c7.35,1.8,15.34,2.76,24,2.76c0,0-0.252-4.934-1.101-13.396   C148.523,326.156,142.143,234.488,143.512,179.664z"/>
	<path style="fill:#F7B239;" d="M292.313,138.599c0,4.84-1.58,9.3-4.26,12.9c-57.37,51.25-76.29,149.6-82.21,196.34   c-0.28,2.24-0.54,4.37-0.76,6.36c-0.07,0.63-0.14,1.24-0.21,1.84c-0.09,0.89-0.19,1.75-0.27,2.57c-0.04,0.4-0.09,0.79-0.12,1.17   c-0.12,1.16-0.22,2.24-0.32,3.26c-0.07,0.69-0.13,1.34-0.18,1.96c-0.03,0.31-0.05,0.61-0.08,0.91c-0.05,0.59-0.1,1.16-0.14,1.68   c-0.03,0.33-0.05,0.65-0.08,0.95c-0.04,0.43-0.07,0.84-0.09,1.21c-0.12,1.55-0.19,2.67-0.23,3.32c-0.01,0.17-0.02,0.3-0.03,0.4   c-0.01,0.18-0.01,0.27-0.01,0.27s-0.7-13.91-3.79-35.24c-4.97-34.34-16.11-87.9-40.44-133.53c-10.56-19.84-23.63-38.18-39.76-52.78   c-0.25-0.22-0.49-0.46-0.74-0.68v-0.01c-2.67-3.61-4.26-8.06-4.26-12.9c0-7.89,4.21-14.79,10.51-18.58   c-3.3-3.81-5.31-8.77-5.31-14.2c0-8.34,4.71-15.57,11.6-19.2c-1.34-2.82-2.1-5.97-2.1-9.3c0-9.76,6.44-18,15.3-20.73   c-0.23-1.27-0.36-2.57-0.36-3.91c0-11.27,8.6-20.52,19.59-21.58c-0.05-0.63-0.09-1.27-0.09-1.92c0-11.97,9.71-21.68,21.68-21.68   c7.61,0,14.3,3.93,18.17,9.86c3.87-5.93,10.56-9.86,18.17-9.86c0.38,0,0.75,0.01,1.12,0.03c0.6,0.03,1.19,0.08,1.77,0.17   c0.46,0.05,0.91,0.13,1.35,0.22c0.33,0.06,0.66,0.14,0.98,0.22c0.29,0.07,0.58,0.15,0.86,0.23c0.38,0.11,0.75,0.23,1.11,0.36   c0.26,0.09,0.51,0.18,0.76,0.29c0.07,0.02,0.13,0.04,0.19,0.07h0.01c7.93,3.22,13.53,11,13.53,20.09c0,0.65-0.04,1.29-0.09,1.92   c10.99,1.06,19.59,10.31,19.59,21.58c0,1.34-0.13,2.64-0.36,3.91c8.86,2.73,15.3,10.97,15.3,20.73c0,3.33-0.76,6.48-2.1,9.3   c6.89,3.63,11.6,10.86,11.6,19.2c0,5.43-2.01,10.39-5.31,14.2C288.104,123.809,292.313,130.709,292.313,138.599z"/>
	<path style="fill:#E09B2D;" d="M216.104,29.179c0,0.65,0.04,1.29,0.09,1.92c-10.99,1.06-19.59,10.31-19.59,21.58   c0,1.34,0.13,2.64,0.36,3.91c-8.86,2.73-15.3,10.97-15.3,20.73c0,3.33,0.76,6.48,2.1,9.3c-6.89,3.63-11.6,10.86-11.6,19.2   c0,5.43,2.01,10.39,5.31,14.2c-6.3,3.79-10.51,10.69-10.51,18.58c0,4.84,1.59,9.29,4.26,12.9v0.01c0.25,0.22,0.49,0.46,0.74,0.68   c-3.91,3.02-6.44,7.74-6.44,13.06c0,5.14,2.35,9.72,6.03,12.75c-3.68,3.02-6.03,7.61-6.03,12.75c0,3.19-2.97,8.58-6.43,14.22   c-10.56-19.84-23.63-38.18-39.76-52.78c-0.25-0.22-0.49-0.46-0.74-0.68v-0.01c-2.67-3.61-4.26-8.06-4.26-12.9   c0-7.89,4.21-14.79,10.51-18.58c-3.3-3.81-5.31-8.77-5.31-14.2c0-8.34,4.71-15.57,11.6-19.2c-1.34-2.82-2.1-5.97-2.1-9.3   c0-9.76,6.44-18,15.3-20.73c-0.23-1.27-0.36-2.57-0.36-3.91c0-11.27,8.6-20.52,19.59-21.58c-0.05-0.63-0.09-1.27-0.09-1.92   c0-11.97,9.71-21.68,21.68-21.68c7.61,0,14.3,3.93,18.17,9.86c3.87-5.93,10.56-9.86,18.17-9.86c0.38,0,0.75,0.01,1.12,0.03   c0.6,0.03,1.19,0.09,1.77,0.17c0.46,0.05,0.91,0.13,1.35,0.22c0.33,0.06,0.66,0.14,0.98,0.22c0.29,0.07,0.58,0.15,0.86,0.23   c0.38,0.11,0.75,0.23,1.11,0.36c0.26,0.09,0.51,0.18,0.76,0.29c0.07,0.02,0.13,0.04,0.19,0.07   C221.703,12.319,216.104,20.089,216.104,29.179z"/>
	<path style="fill:#FFFFFF;" d="M265.31,319.972c-1.22,0-2.457-0.298-3.603-0.927c-3.631-1.993-4.958-6.553-2.965-10.184   c9.332-17.001,15.813-39.85,19.261-67.911c1.145-9.309,1.943-19.228,2.377-29.48c0.174-4.139,3.708-7.363,7.81-7.177   c4.139,0.175,7.352,3.671,7.177,7.81c-0.45,10.651-1.282,20.973-2.475,30.677c-3.683,29.96-10.748,54.621-21.001,73.299   C270.527,318.565,267.959,319.972,265.31,319.972z"/>
	<circle style="fill:#FFFFFF;" cx="219.868" cy="34.503" r="7.5"/>
	<circle style="fill:#FFFFFF;" cx="240.141" cy="53.789" r="7.5"/>
	<circle style="fill:#FFFFFF;" cx="254.464" cy="78.36" r="7.5"/>
	<circle style="fill:#FFFFFF;" cx="263.553" cy="106.045" r="7.5"/>
	<circle style="fill:#FFFFFF;" cx="269.48" cy="138.024" r="7.5"/>
	<circle style="fill:#FFFFFF;" cx="288.205" cy="184.664" r="7.5"/>
	<path style="fill:#333333;" d="M315.6,135.588c-0.332-2.508-1.906-4.68-4.186-5.776c-2.279-1.095-4.959-0.97-7.125,0.338   c-1.674,1.01-3.328,2.075-4.971,3.167c-1.041-5.581-3.697-10.762-7.593-14.86c1.887-3.918,2.888-8.234,2.888-12.637   c0-8.65-3.79-16.688-10.191-22.165c0.46-2.066,0.691-4.183,0.691-6.335c0-10.807-5.816-20.434-14.953-25.5   c-0.355-12.438-8.399-22.965-19.781-26.788C248.361,10.899,236.176,0,221.493,0c-6.712,0-13.078,2.283-18.17,6.344   C198.232,2.283,191.865,0,185.154,0c-14.683,0-26.867,10.899-28.886,25.033c-11.382,3.823-19.426,14.35-19.781,26.788   c-9.137,5.066-14.953,14.693-14.953,25.5c0,2.153,0.231,4.27,0.691,6.335c-6.401,5.477-10.191,13.515-10.191,22.165   c0,4.402,1.001,8.718,2.888,12.637c-3.897,4.1-6.553,9.282-7.593,14.865c-1.645-1.094-3.301-2.16-4.977-3.171   c-2.166-1.308-4.845-1.435-7.125-0.338c-2.28,1.096-3.854,3.268-4.186,5.776c-0.197,1.495-4.815,37.11-2.581,81.172   c3.041,59.968,16.898,104.426,41.188,132.139c11.771,13.431,25.886,22.716,42.177,27.784v22.457c0,4.142,3.357,7.5,7.5,7.5h48   c4.143,0,7.5-3.358,7.5-7.5v-22.458c16.287-5.068,30.401-14.353,42.171-27.782c24.288-27.713,38.146-72.171,41.187-132.139   C320.415,172.698,315.797,137.083,315.6,135.588z M121.833,138.6c0-5.02,2.57-9.563,6.876-12.153   c1.897-1.142,3.193-3.063,3.541-5.249c0.348-2.187-0.288-4.415-1.738-6.088c-2.243-2.59-3.479-5.89-3.479-9.29   c0-5.282,2.91-10.096,7.596-12.564c3.558-1.875,5.004-6.221,3.278-9.854c-0.912-1.919-1.374-3.965-1.374-6.082   c0-6.268,4.022-11.718,10.009-13.563c3.626-1.118,5.847-4.767,5.172-8.501c-0.162-0.893-0.24-1.736-0.24-2.577   c0-7.342,5.507-13.41,12.81-14.114c4.073-0.393,7.079-3.977,6.757-8.056c-0.033-0.417-0.066-0.9-0.066-1.33   c0-7.819,6.361-14.18,14.18-14.18c4.806,0,9.25,2.415,11.889,6.459c1.385,2.122,3.748,3.401,6.281,3.401s4.896-1.279,6.281-3.401   c2.639-4.044,7.083-6.459,11.889-6.459c7.818,0,14.18,6.361,14.18,14.18c0,0.43-0.033,0.913-0.066,1.33   c-0.322,4.079,2.684,7.664,6.757,8.056c7.303,0.704,12.81,6.772,12.81,14.114c0,0.84-0.078,1.684-0.24,2.577   c-0.675,3.734,1.546,7.383,5.172,8.501c5.986,1.845,10.009,7.295,10.009,13.563c0,2.117-0.462,4.163-1.374,6.082   c-1.726,3.632-0.279,7.979,3.278,9.854c4.686,2.469,7.596,7.283,7.596,12.564c0,3.4-1.235,6.7-3.479,9.29   c-1.45,1.673-2.086,3.902-1.738,6.088c0.348,2.186,1.644,4.107,3.541,5.249c4.306,2.59,6.876,7.133,6.876,12.153   c0,2.896-0.864,5.646-2.486,7.997c-13.93,12.617-26.474,28.555-37.45,47.676c-12.984,22.62-23.845,49.728-32.281,80.572   c-3.924,14.348-6.949,28.101-9.276,40.546c-2.328-12.445-5.352-26.198-9.276-40.546c-8.437-30.844-19.297-57.952-32.281-80.571   c-10.97-19.109-23.505-35.039-37.425-47.653C122.704,144.244,121.833,141.485,121.833,138.6z M140.94,339.027   c-43.68-49.817-39.248-153.667-36.261-189.229c40.807,30.609,63.114,86.037,74.82,128.728   c10.382,37.864,14.352,72.222,15.707,87.391C173.288,364.156,155.061,355.133,140.94,339.027z M219.823,391.64h-33v-11.573   c5.307,0.776,10.807,1.167,16.497,1.167c5.692,0,11.194-0.391,16.503-1.168V391.64z M265.713,339.013   c-14.124,16.115-32.354,25.143-54.278,26.902c1.355-15.169,5.325-49.527,15.707-87.391   c20.065-73.181,50.134-110.103,74.825-128.709C304.965,185.382,309.413,289.152,265.713,339.013z"/>
</g>















</svg>
